<?xml version="1.0" encoding="utf-8"?>
<!-- Generator: Adobe Illustrator 23.0.1, SVG Export Plug-In . SVG Version: 6.00 Build 0)  -->
<svg version="1.1" id="Capa_1" xmlns="http://www.w3.org/2000/svg" xmlns:xlink="http://www.w3.org/1999/xlink" x="0px" y="0px"
	 viewBox="0 0 600 600" style="enable-background:new 0 0 600 600;" xml:space="preserve">
<g>
	<g>
		<g>
			<path d="M588.8,299.7c-6.3-11.2-21.1-15.5-33-8.4l-80.1,46.4l-20.4,11.9v111l19,11.2c0.7,0,0.7,0.7,1.4,0.7l78.7,45.7
				c3.5,2.8,8.4,4.2,13.3,4.2c13.3,0,23.9-10.5,23.9-23.9v-94.2l0.7-92.7C592.3,307.4,591.6,303.2,588.8,299.7z"/>
			<path d="M120.8,263.8c62.5,0,113.1-50.6,113.1-113.1S183.4,37.6,120.8,37.6S7.7,88.2,7.7,150.7C7,213.3,58.3,263.8,120.8,263.8z
				 M120.8,104.3c26,0,46.4,21.1,46.4,46.4c0,26-21.1,46.4-46.4,46.4S74.5,176,74.5,150.7C73.8,124.7,94.8,104.3,120.8,104.3z"/>
			<path d="M407.5,270.2c-18.3,9.1-38.6,14.8-60.4,14.8c-26.7,0-52-7.7-73.1-21.8h-80.1c-21.1,14.1-46.4,21.8-73.1,21.8
				c-21.8,0-42.2-4.9-60.4-14.8C44.2,279.3,33,297.6,33,317.2v171.4c0,31.6,26,56.9,56.9,56.9h288.8c31.6,0,56.9-26,56.9-56.9V317.2
				C434.9,297.6,423.7,279.3,407.5,270.2z"/>
			<path d="M347.1,263.8c62.5,0,113.1-50.6,113.1-113.1S409.6,37.6,347.1,37.6S234,88.2,234,150.7
				C234,213.3,284.5,263.8,347.1,263.8z M347.1,104.3c26,0,46.4,21.1,46.4,46.4c0,26-21.1,46.4-46.4,46.4
				c-25.3,0-46.4-21.1-46.4-46.4C300.7,124.7,321.1,104.3,347.1,104.3z"/>
		</g>
	</g>
</g>
</svg>
